<svg width="76" height="76" viewBox="0 0 76 76" fill="none" xmlns="http://www.w3.org/2000/svg">
<path fill-rule="evenodd" clip-rule="evenodd" d="M48.9239 5.87606C49.1416 5.6578 49.4002 5.48463 49.685 5.36647C49.9697 5.24832 50.275 5.1875 50.5832 5.1875C50.8915 5.1875 51.1968 5.24832 51.4815 5.36647C51.7663 5.48463 52.0249 5.6578 52.2426 5.87606L70.9926 24.6261C71.2109 24.8438 71.384 25.1024 71.5022 25.3872C71.6204 25.6719 71.6812 25.9772 71.6812 26.2854C71.6812 26.5937 71.6204 26.899 71.5022 27.1837C71.384 27.4685 71.2109 27.7271 70.9926 27.9448L62.077 36.8604L58.1911 52.3901C57.8955 53.5726 57.2977 54.658 56.4562 55.5398C55.6147 56.4215 54.5585 57.0694 53.3911 57.4198L4.89886 71.9698L19.4489 23.4729C19.7996 22.307 20.447 21.2521 21.3279 20.4115C22.2087 19.5709 23.2928 18.9734 24.4739 18.6776L40.0036 14.7964L48.9239 5.87606ZM40.4864 19.5073L25.6129 23.2245C25.2181 23.323 24.8557 23.5227 24.5615 23.8038C24.2673 24.0849 24.0513 24.4377 23.9348 24.8276L11.8879 64.9761L52.0457 52.9292C52.4333 52.8117 52.7839 52.5958 53.0632 52.3026C53.3425 52.0093 53.5411 51.6486 53.6395 51.2557L57.3614 36.3776L40.4864 19.5026V19.5073Z" fill="#00C4F0"/>
<path fill-rule="evenodd" clip-rule="evenodd" d="M12.2957 64.854L36.5207 45.0353C37.4478 45.0353 38.3541 44.7604 39.125 44.2453C39.8958 43.7302 40.4966 42.9981 40.8514 42.1416C41.2062 41.2851 41.299 40.3426 41.1182 39.4333C40.9373 38.524 40.4909 37.6888 39.8353 37.0332C39.1797 36.3777 38.3445 35.9312 37.4352 35.7503C36.5259 35.5695 35.5834 35.6623 34.7269 36.0171C33.8704 36.3719 33.1383 36.9727 32.6232 37.7435C32.1082 38.5144 31.8332 39.4207 31.8332 40.3478L12.0145 64.5728L11.8926 64.9759L12.2957 64.854V64.854Z" fill="#00C4F0"/>
</svg>
